# Blender 3.5.1
# www.blender.org
mtllib blue_ground.mtl
g Cube_Mesh
v -2.808756 0.199670 2.808756
v -2.808756 0.051223 2.808756
v -2.808756 0.199670 -2.808756
v -2.808756 0.051223 -2.808756
v 2.808756 0.199670 2.808756
v 2.808756 0.051223 2.808756
v 2.808756 0.199670 -2.808756
v 2.808756 0.051223 -2.808756
vn -1.0000 -0.0000 -0.0000
vn -0.0000 -0.0000 -1.0000
vn 1.0000 -0.0000 -0.0000
vn -0.0000 -0.0000 1.0000
vn -0.0000 1.0000 -0.0000
vn -0.0000 -1.0000 -0.0000
vt -8.083037 -33.832150
vt -8.083037 34.832150
vt -25.249113 17.666075
vt 9.083037 -33.832150
vt 9.083037 34.832150
vt 26.249113 17.666075
vt -25.249113 0.500000
vt -8.083037 -16.666075
vt 9.083037 -16.666075
vt 26.249113 0.500000
vt -8.083037 17.666075
vt 9.083037 17.666075
vt -8.083037 0.500000
vt 9.083037 0.500000
s 0
g off
g Cube_Material.001
usemtl Material.001
f 2/4/1 1/1/1 3/8/1
f 4/9/2 3/8/2 7/13/2
f 8/14/3 7/13/3 5/11/3
f 6/12/4 5/11/4 1/2/4
f 7/13/5 3/7/5 1/3/5
f 4/10/6 8/14/6 6/12/6
f 2/4/1 3/8/1 4/9/1
f 4/9/2 7/13/2 8/14/2
f 8/14/3 5/11/3 6/12/3
f 6/12/4 1/2/4 2/5/4
f 7/13/5 1/3/5 5/11/5
f 4/10/6 6/12/6 2/6/6
